<svg xmlns="http://www.w3.org/2000/svg" width="1200" height="630" viewBox="0 0 1200 630" fill="none">
  <defs>
    <linearGradient id="bg" x1="0" y1="0" x2="1" y2="1">
      <stop offset="0%" stop-color="#0a0a0f"/>
      <stop offset="100%" stop-color="#12121a"/>
    </linearGradient>
    <radialGradient id="glow" cx="0.8" cy="0.4" r="0.6">
      <stop offset="0%" stop-color="#10b981" stop-opacity="0.2"/>
      <stop offset="100%" stop-color="#10b981" stop-opacity="0"/>
    </radialGradient>
  </defs>
  <rect width="1200" height="630" fill="url(#bg)"/>
  <rect width="1200" height="630" fill="url(#glow)"/>

  <!-- Carnet / tarjeta -->
  <g transform="translate(760 175)">
    <rect width="360" height="240" rx="24" fill="#12121a" stroke="#6366f1" stroke-opacity="0.4" stroke-width="3"/>
    <rect x="28" y="34" width="90" height="110" rx="12" fill="#6366f1" fill-opacity="0.18"/>
    <circle cx="73" cy="74" r="22" fill="#818cf8"/>
    <path d="M40 130 Q73 96 106 130 Z" fill="#818cf8"/>
    <rect x="140" y="40" width="190" height="16" rx="8" fill="#ffffff" fill-opacity="0.18"/>
    <rect x="140" y="72" width="150" height="12" rx="6" fill="#ffffff" fill-opacity="0.1"/>
    <rect x="140" y="98" width="170" height="12" rx="6" fill="#ffffff" fill-opacity="0.1"/>
    <text x="28" y="200" fill="#22d3ee" font-family="'JetBrains Mono', monospace" font-size="30" font-weight="700">23.343.232-6</text>
    <!-- check -->
    <circle cx="312" cy="196" r="22" fill="#10b981"/>
    <path d="M302 196 l7 7 l13 -15" stroke="#fff" stroke-width="4" fill="none" stroke-linecap="round" stroke-linejoin="round"/>
  </g>

  <!-- Texto -->
  <text x="80" y="250" fill="#ffffff" font-family="'Space Grotesk', Inter, sans-serif" font-size="74" font-weight="800">Validador</text>
  <text x="80" y="338" fill="#818cf8" font-family="'Space Grotesk', Inter, sans-serif" font-size="74" font-weight="800">de RUT</text>
  <text x="80" y="398" fill="#9ca3af" font-family="Inter, sans-serif" font-size="26" font-weight="500">Dígito verificador · formatos · persona o empresa</text>

  <g font-family="'JetBrains Mono', monospace" font-size="22" font-weight="600">
    <rect x="80" y="446" width="170" height="44" rx="12" fill="#10b981" fill-opacity="0.15"/>
    <text x="100" y="475" fill="#34d399">✓ válido</text>
    <rect x="268" y="446" width="160" height="44" rx="12" fill="#6366f1" fill-opacity="0.15"/>
    <text x="288" y="475" fill="#818cf8">por lote</text>
  </g>
</svg>
